<?xml version="1.0" encoding="UTF-8"?>
<svg id="Layer_1" data-name="Layer 1" xmlns="http://www.w3.org/2000/svg" viewBox="0 0 675.8 119.56">
  <defs>
    <style>
      .cls-1 {
        fill: #12F7D6;
        stroke-width: 0px;
      }
      .cls-2 {
        fill: #FFFFFF;
        stroke-width: 0px;
      }
      
    </style>
  </defs>
  <g>
    <path class="cls-1" d="m152.75,49.08l-.06-45.36C152.69,1.66,151.02,0,148.97,0L29.72.17c-2.05,0-3.71,1.67-3.71,3.72l.03,20.22c0,2.05,1.67,3.71,3.72,3.71l114.34-.16-63.88,39.71c-3.18,1.98-1.77,6.88,1.97,6.87l32.51-.05c.69,0,1.37-.2,1.96-.56l34.34-21.4c1.09-.68,1.75-1.87,1.75-3.16Z"/>
    <path class="cls-1" d="m76.58,41.65l-32.54.05c-.69,0-1.37.2-1.96.56L1.75,67.33C.66,68,0,69.2,0,70.49l.06,45.36c0,2.05,1.67,3.71,3.72,3.71l119.24-.17c2.05,0,3.71-1.67,3.71-3.72l-.03-20.22c0-2.05-1.67-3.71-3.72-3.71l-114.04.16,69.6-43.37c3.17-1.98,1.77-6.88-1.97-6.87Z"/>
  </g>
  <g>
    <path class="cls-2" d="m178.64,11.22h56.16v21.81l-51.87,46.11h51.87v11.19h-56.16v-21.81l51.87-46.11h-51.87v-11.19Z"/>
    <path class="cls-2" d="m265.07,31.45c6.93,0,12.58,1.81,16.95,5.42,4.37,3.62,6.55,8.82,6.55,15.6v37.86h-11.87v-15.37c-3.54,11-10.66,16.5-21.36,16.5-4.97,0-9.12-1.49-12.43-4.46-3.32-2.97-4.97-6.87-4.97-11.7,0-5.65,2-9.89,5.99-12.71,3.99-2.83,9.08-4.58,15.26-5.26l11.19-1.13c4.22-.38,6.33-2.26,6.33-5.65,0-2.79-1.07-5.01-3.22-6.67-2.15-1.66-4.95-2.49-8.42-2.49s-6.54.9-8.98,2.71c-2.45,1.81-4.01,4.45-4.69,7.91l-11.75-2.82c1.05-5.42,3.88-9.74,8.48-12.94,4.59-3.2,10.24-4.8,16.95-4.8Zm-5.88,50.4c4.9,0,9.04-1.64,12.43-4.92,3.39-3.28,5.09-7.1,5.09-11.47v-3.16c-.9,1.51-3.09,2.45-6.55,2.83l-10.96,1.36c-2.86.38-5.14,1.23-6.84,2.54-1.7,1.32-2.54,3.11-2.54,5.37s.85,4.07,2.54,5.43c1.7,1.36,3.97,2.03,6.84,2.03Z"/>
    <path class="cls-2" d="m318.65,87.05l18.31-54.47h12.09l-27.12,80.35h-12.09l7.68-22.6h-9.38l-19.66-57.75h12.88l17.29,54.47Z"/>
    <path class="cls-2" d="m355.38,82.87c-5.88-5.72-8.81-12.84-8.81-21.36s2.94-15.65,8.81-21.42c5.88-5.76,13.15-8.65,21.81-8.65s15.94,2.88,21.81,8.65c5.88,5.76,8.81,12.9,8.81,21.42s-2.94,15.63-8.81,21.36c-5.88,5.73-13.15,8.59-21.81,8.59s-15.93-2.86-21.81-8.59Zm8.7-34.98c-3.54,3.66-5.31,8.19-5.31,13.62s1.77,9.95,5.31,13.56c3.54,3.62,7.91,5.42,13.11,5.42s9.66-1.81,13.17-5.42,5.25-8.14,5.25-13.56-1.75-10.06-5.25-13.67c-3.5-3.62-7.89-5.42-13.17-5.42s-9.57,1.83-13.11,5.48Z"/>
    <path class="cls-2" d="m446.26,31.45c6.55,0,11.9,2.3,16.05,6.89,4.14,4.6,6.22,10.44,6.22,17.52v34.47h-11.87v-32.66c0-4.44-1.43-8.12-4.29-11.02-2.86-2.9-6.41-4.35-10.62-4.35-4.74,0-8.63,1.45-11.64,4.35-3.01,2.9-4.52,6.57-4.52,11.02v32.66h-11.87v-57.75h11.87v14.92c1.58-4.97,4.2-8.89,7.85-11.75,3.65-2.86,7.93-4.29,12.83-4.29Z"/>
    <path class="cls-2" d="m473.97,69.76l12.54-2.6c.68,4.22,2.56,7.5,5.65,9.83,3.09,2.34,7.19,3.5,12.32,3.5,4.67,0,8.49-1.07,11.47-3.22,2.97-2.15,4.46-4.88,4.46-8.19,0-2.18-.64-4.09-1.92-5.71-1.28-1.62-2.96-2.88-5.03-3.79-2.07-.9-4.45-1.79-7.12-2.66-2.68-.87-5.41-1.62-8.19-2.26-2.79-.64-5.52-1.56-8.19-2.77-2.67-1.2-5.05-2.56-7.12-4.07-2.07-1.51-3.75-3.58-5.03-6.22-1.28-2.64-1.92-5.69-1.92-9.15,0-6.4,2.66-11.73,7.97-15.99,5.31-4.26,11.92-6.39,19.83-6.39s14.35,2.02,19.55,6.05c5.2,4.03,8.29,9.25,9.27,15.65l-12.66,2.6c-.68-3.99-2.49-7.23-5.42-9.72-2.94-2.49-6.67-3.73-11.19-3.73-4.22,0-7.68,1.04-10.4,3.11-2.71,2.07-4.07,4.65-4.07,7.74,0,2.71,1.09,4.97,3.28,6.78,2.18,1.81,4.93,3.11,8.25,3.9,3.31.79,6.89,1.81,10.74,3.05,3.84,1.24,7.42,2.6,10.74,4.07,3.31,1.47,6.06,3.84,8.25,7.12,2.18,3.28,3.28,7.29,3.28,12.04,0,6.55-2.79,11.98-8.36,16.27-5.58,4.29-12.51,6.44-20.79,6.44s-15.14-1.96-20.57-5.88c-5.42-3.92-8.63-9.19-9.61-15.82Z"/>
    <path class="cls-2" d="m545.82,82.87c-5.88-5.72-8.81-12.84-8.81-21.36s2.94-15.65,8.81-21.42c5.88-5.76,13.15-8.65,21.81-8.65s15.94,2.88,21.81,8.65c5.88,5.76,8.81,12.9,8.81,21.42s-2.94,15.63-8.81,21.36c-5.88,5.73-13.15,8.59-21.81,8.59s-15.93-2.86-21.81-8.59Zm8.7-34.98c-3.54,3.66-5.31,8.19-5.31,13.62s1.77,9.95,5.31,13.56c3.54,3.62,7.91,5.42,13.11,5.42s9.66-1.81,13.17-5.42c3.5-3.62,5.25-8.14,5.25-13.56s-1.75-10.06-5.25-13.67c-3.5-3.62-7.89-5.42-13.17-5.42s-9.57,1.83-13.11,5.48Z"/>
    <path class="cls-2" d="m675.8,32.58v10.51h-16.16v26.67c0,3.54.79,6.1,2.37,7.68,1.58,1.58,4.11,2.37,7.57,2.37h6.22v10.51h-6.22c-7.46,0-12.96-1.73-16.5-5.2-3.54-3.46-5.31-8.78-5.31-15.93v-26.1h-25.77v47.24h-11.87v-47.24h-12.32v-10.51h12.32v-4.75c0-7.16,1.77-12.47,5.31-15.93,3.54-3.46,9.04-5.2,16.5-5.2h6.33v10.51h-6.33c-3.46,0-5.99.79-7.57,2.37-1.58,1.58-2.37,4.14-2.37,7.68v5.31h25.77V13.82l11.87-3.73v22.49h16.16Z"/>
  </g>
</svg>